Coordinates
version=1
nRows=5
nColumns=40
inDegrees=yes

Units are S.I. units (second, meters, Newtons, ...)
If the header above contains a line with 'inDegrees', this indicates whether rotational values are in degrees (yes) or radians (no).

endheader
time	pelvis_tilt	pelvis_list	pelvis_rotation	pelvis_tx	pelvis_ty	pelvis_tz	hip_flexion_r	hip_adduction_r	hip_rotation_r	knee_angle_r	knee_angle_r_beta	ankle_angle_r	subtalar_angle_r	mtp_angle_r	hip_flexion_l	hip_adduction_l	hip_rotation_l	knee_angle_l	knee_angle_l_beta	ankle_angle_l	subtalar_angle_l	mtp_angle_l	lumbar_extension	lumbar_bending	lumbar_rotation	arm_flex_r	arm_add_r	arm_rot_r	elbow_flex_r	pro_sup_r	wrist_flex_r	wrist_dev_r	arm_flex_l	arm_add_l	arm_rot_l	elbow_flex_l	pro_sup_l	wrist_flex_l	wrist_dev_l
      4.01666667	     -1.32773698	     18.56308058	     -2.39305039	     -0.24651767	      1.06597475	      0.26442426	     72.79861193	    -17.27862606	     18.91863608	     81.70343862	      1.42599401	     14.65205188	    -16.72845031	      0.00000000	     46.86801011	      5.19964554	    -15.99660157	     88.25586279	      1.54035539	      4.34460610	    -18.13773578	      0.00000000	    -52.65340421	    -15.76565320	    -13.46429561	     89.67359495	     -6.68456316	     63.12225780	     17.85036281	     87.98595803	      0.00000000	      0.00000000	     89.84779677	     -7.01754087	     44.00072892	     24.52974947	     88.64721968	      0.00000000	      0.00000000
      4.02500000	     -1.45759296	     18.22950044	     -1.64995925	     -0.24624347	      1.06656816	      0.26379773	     71.18449932	    -18.31176494	     17.56145005	     79.25228689	      1.38321335	     13.28088409	    -16.90947168	      0.00000000	     47.95091274	      5.11238810	    -15.30223194	     90.24736764	      1.57511371	      4.73573516	    -18.12521121	      0.00000000	    -52.60503487	    -15.07277289	    -13.70805487	     89.69931499	     -6.53844404	     64.10247352	     17.30816506	     87.92786126	      0.00000000	      0.00000000	     89.84965079	     -7.02778411	     44.19942005	     24.42858150	     88.64585462	      0.00000000	      0.00000000
      4.03333333	     -1.96207097	     17.94205463	     -1.28008184	     -0.24635082	      1.06596992	      0.26372662	     70.06428499	    -18.74016577	     16.45033629	     76.87422539	      1.34170834	     12.24165673	    -17.33960690	      0.00000000	     49.61767522	      4.58758743	    -15.00690284	     92.49419832	      1.61432830	      5.25482503	    -17.82324274	      0.00000000	    -52.08087324	    -14.80994463	    -13.55359002	     89.69870969	     -6.56795231	     64.92519586	     16.98179050	     87.75623037	      0.00000000	      0.00000000	     89.84848369	     -6.90888649	     44.49608524	     24.29746007	     88.63241340	      0.00000000	      0.00000000
      4.04166667	     -1.97693211	     18.48556962	     -1.15953537	     -0.24583821	      1.06626905	      0.26354165	     68.77763495	    -19.50598667	     16.37129700	     74.60987034	      1.30218789	     11.62797139	    -17.21585319	      0.00000000	     50.60748382	      4.76078803	    -15.44778618	     94.31498920	      1.64610710	      5.62875446	    -17.88199793	      0.00000000	    -52.19500847	    -15.19879176	    -14.12021042	     89.66244867	     -6.52887682	     65.06160944	     16.88618561	     87.78833204	      0.00000000	      0.00000000	     89.85112924	     -6.88023383	     44.53338711	     24.22427373	     88.63433818	      0.00000000	      0.00000000
      4.05000000	     -2.30548643	     18.06667156	     -0.34820691	     -0.24568930	      1.06616261	      0.26284588	     67.25980803	    -20.43984555	     14.74983810	     72.30234728	      1.26191402	     10.42219496	    -17.50222749	      0.00000000	     52.17604229	      4.64347652	    -14.66166906	     96.48130672	      1.68391647	      6.03665423	    -17.77549655	      0.00000000	    -51.89407632	    -14.47144388	    -14.23349355	     89.69145616	     -6.43389002	     66.19792825	     16.31070444	     87.66071744	      0.00000000	      0.00000000	     89.84908394	     -6.81803910	     44.82715479	     24.12148100	     88.62401821	      0.00000000	      0.00000000
